# xmcd CD database file
#
# Track frame offsets:
#	150
#	19561
#	35632
#	55874
#	85244
#	110503
#	135297
#	150463
#	171508
#	183420
#
# Disc length: 2679 seconds
#
# Revision: 0
# Processed by: cddbd v1.5PL3 Copyright (c) Steve Scherf et al.
# Submitted via: CDex 1.51
#
DISCID=780a750a
DTITLE=The Three Amigos - Spanish Eyes
DYEAR=1997
DGENRE=Jazz
TTITLE0=Triste
TTITLE1=Lucky Southern
TTITLE2=Lullaby of Birdland
TTITLE3=My One And Only
TTITLE4=Alice in Wonderland
TTITLE5=Brazilian Sunset
TTITLE6=Blue Bossa
TTITLE7=Autumn Leaves
TTITLE8=Isn't She Lovely
TTITLE9=Spanish Eyes
EXTD=YEAR: 1997
EXTT0=
EXTT1=
EXTT2=
EXTT3=
EXTT4=
EXTT5=
EXTT6=
EXTT7=
EXTT8=
EXTT9=
PLAYORDER=
